<?xml version="1.0" standalone="no"?>
<!DOCTYPE svg PUBLIC "-//W3C//DTD SVG 1.0//EN" "http://www.w3.org/TR/2001/REC-SVG-20010904/DTD/svg10.dtd">
<svg xmlns="http://www.w3.org/2000/svg" xmlns:xlink="http://www.w3.org/1999/xlink" id="body_1" width="25" height="25">

<g transform="matrix(1 0 0 1 0 0)">
	<g transform="matrix(0.78235024 0 0 0.78235024 0 0)">
		<g>
		</g>
		<g>
		</g>
		<g>
			<g>
                <path d="M27.25 4.655C 20.996 -1.571 10.88 -1.546 4.656 4.706C -1.571 10.96 -1.548 21.076 4.705 27.3C 10.961 33.526 21.079 33.503 27.302 27.248999C 33.526 20.995 33.505 10.878 27.25 4.655z" stroke="none" fill="#4E9A06" fill-rule="nonzero" />
                <path d="M13.288 23.896L11.52 29.103C 14.087 29.932001 16.851 29.989 19.446001 29.273L19.446001 29.273L18.781 23.857C 17.01 24.487 15.067 24.5 13.288 23.896zM8.12 13.122L2.475 12.263C 1.734 14.928999 1.8089999 17.777 2.6999998 20.405998L2.6999998 20.405998L8.191 19.030998C 7.452 17.138 7.426 15.029 8.12 13.122zM28.763 11.333L23.798 13.008C 24.596 15.114 24.514 17.476 23.551 19.53L23.551 19.53L28.902 20.202002C 29.827 17.319 29.78 14.193 28.763 11.333zM11.394 2.883L12.412 8.410999C 14.438999 7.4569993 16.768 7.360999 18.854 8.122999L18.854 8.122999L20.437 2.985999C 17.523 1.94 14.328 1.906 11.394 2.883z" stroke="none" fill="#4E9A06" fill-rule="nonzero" />
                <path d="M22.096 15.977C 22.096 17.666162 21.49879 19.107954 20.304373 20.302372C 19.109955 21.496792 17.668163 22.094002 15.979 22.094C 14.289837 22.094002 12.848046 21.496792 11.653627 20.302372C 10.459209 19.107954 9.8619995 17.666162 9.8619995 15.977C 9.8619995 14.287838 10.459209 12.846048 11.653627 11.6516285C 12.848046 10.457211 14.289837 9.860001 15.979 9.860001C 17.668163 9.860001 19.109955 10.457211 20.304373 11.6516285C 21.49879 12.846048 22.096 14.287838 22.096 15.977C 22.096 16.048182 22.094759 16.119343 22.092274 16.190481" stroke="none" fill="#4E9A06" fill-rule="nonzero" />
			</g>
		</g>
	</g>
</g>
</svg>